<svg width="60" height="16" viewBox="0 0 60 16" fill="none" xmlns="http://www.w3.org/2000/svg">
<path d="M15.5802 0.743749C15.6869 0.943749 15.7469 1.12375 15.7602 1.28375C15.7869 1.44375 15.8002 1.67708 15.8002 1.98375V13.0837C15.8002 14.0037 15.5469 14.5437 15.0402 14.7037C14.7869 14.7837 14.4669 14.8237 14.0802 14.8237C13.6935 14.8237 13.3869 14.7904 13.1602 14.7237C12.9335 14.6571 12.7602 14.5771 12.6402 14.4837C12.5202 14.3904 12.4269 14.2571 12.3602 14.0837C12.2935 13.8571 12.2602 13.5104 12.2602 13.0437V6.34375C11.9269 6.75708 11.4402 7.41708 10.8002 8.32375C10.1602 9.21708 9.75353 9.77708 9.5802 10.0037C9.40686 10.2304 9.28686 10.3904 9.2202 10.4837C9.15353 10.5637 8.98686 10.6837 8.7202 10.8437C8.46686 10.9904 8.18686 11.0637 7.8802 11.0637C7.58686 11.0637 7.31353 10.9971 7.0602 10.8637C6.8202 10.7171 6.64686 10.5771 6.5402 10.4437L6.3802 10.2237C6.11353 9.89042 5.58686 9.18375 4.8002 8.10375C4.01353 7.01042 3.58686 6.42375 3.5202 6.34375V13.0837C3.5202 13.3904 3.50686 13.6237 3.4802 13.7837C3.46686 13.9304 3.40686 14.0971 3.3002 14.2837C3.1002 14.6437 2.5802 14.8237 1.7402 14.8237C0.926862 14.8237 0.420195 14.6437 0.220195 14.2837C0.113529 14.0971 0.046862 13.9237 0.0201953 13.7637C0.00686202 13.6037 0.000195369 13.3637 0.000195369 13.0437V1.94375C0.000195369 1.63708 0.00686202 1.41042 0.0201953 1.26375C0.046862 1.10375 0.113529 0.923749 0.220195 0.723749C0.420195 0.377082 0.940195 0.203749 1.7802 0.203749C2.1402 0.203749 2.44686 0.250416 2.7002 0.34375C2.96686 0.423749 3.1402 0.510416 3.2202 0.60375L3.3402 0.723749L7.8802 6.68375C10.1469 3.68375 11.6602 1.70375 12.4202 0.743749C12.6469 0.383749 13.1802 0.203749 14.0202 0.203749C14.8735 0.203749 15.3935 0.383749 15.5802 0.743749ZM24.2825 0.00374913C26.2559 0.00374913 27.9692 0.717082 29.4225 2.14375C30.8759 3.57042 31.6025 5.34375 31.6025 7.46375C31.6025 9.57042 30.9092 11.3704 29.5225 12.8637C28.1359 14.3437 26.4292 15.0838 24.4025 15.0838C22.3759 15.0838 20.6492 14.3504 19.2225 12.8837C17.8092 11.4171 17.1025 9.67042 17.1025 7.64375C17.1025 6.53708 17.3025 5.50375 17.7025 4.54375C18.1025 3.57042 18.6359 2.75708 19.3025 2.10375C19.9692 1.45042 20.7359 0.937082 21.6025 0.563749C22.4692 0.190416 23.3625 0.00374913 24.2825 0.00374913ZM20.6425 7.54375C20.6425 8.73042 21.0225 9.69708 21.7825 10.4437C22.5559 11.1771 23.4159 11.5437 24.3625 11.5437C25.3092 11.5437 26.1625 11.1837 26.9225 10.4637C27.6825 9.74375 28.0625 8.77708 28.0625 7.56375C28.0625 6.35042 27.6759 5.37708 26.9025 4.64375C26.1425 3.91042 25.2892 3.54375 24.3425 3.54375C23.3959 3.54375 22.5425 3.91708 21.7825 4.66375C21.0225 5.39708 20.6425 6.35708 20.6425 7.54375ZM44.1304 12.3637C44.3304 12.8437 44.4304 13.1904 44.4304 13.4037C44.4304 13.9104 44.017 14.3371 43.1904 14.6837C42.7637 14.8704 42.417 14.9638 42.1504 14.9638C41.897 14.9638 41.6837 14.9038 41.5104 14.7837C41.3504 14.6504 41.2304 14.5171 41.1504 14.3837C41.017 14.1304 40.497 12.9237 39.5904 10.7637L38.9704 10.8037H36.4504V13.0637C36.4504 13.3704 36.437 13.6037 36.4104 13.7637C36.397 13.9104 36.337 14.0837 36.2304 14.2837C36.0437 14.6437 35.5237 14.8237 34.6704 14.8237C33.737 14.8237 33.1904 14.5771 33.0304 14.0837C32.9504 13.8571 32.9104 13.5104 32.9104 13.0437V1.94375C32.9104 1.63708 32.917 1.41042 32.9304 1.26375C32.957 1.10375 33.0237 0.923749 33.1304 0.723749C33.317 0.363749 33.837 0.183749 34.6904 0.183749H39.0104C40.1837 0.183749 41.3237 0.610416 42.4304 1.46375C42.9637 1.87708 43.4037 2.43708 43.7504 3.14375C44.097 3.85042 44.2704 4.63708 44.2704 5.50375C44.2704 7.01042 43.7704 8.25042 42.7704 9.22375C43.0637 9.93042 43.517 10.9771 44.1304 12.3637ZM36.4504 7.26375H39.0104C39.397 7.26375 39.7837 7.11708 40.1704 6.82375C40.557 6.53042 40.7504 6.09042 40.7504 5.50375C40.7504 4.91708 40.557 4.47708 40.1704 4.18375C39.7837 3.87708 39.3837 3.72375 38.9704 3.72375H36.4504V7.26375ZM52.2122 0.00374913C54.1856 0.00374913 55.8989 0.717082 57.3522 2.14375C58.8056 3.57042 59.5322 5.34375 59.5322 7.46375C59.5322 9.57042 58.8389 11.3704 57.4522 12.8637C56.0656 14.3437 54.3589 15.0838 52.3322 15.0838C50.3056 15.0838 48.5789 14.3504 47.1522 12.8837C45.7389 11.4171 45.0322 9.67042 45.0322 7.64375C45.0322 6.53708 45.2322 5.50375 45.6322 4.54375C46.0322 3.57042 46.5656 2.75708 47.2322 2.10375C47.8989 1.45042 48.6656 0.937082 49.5322 0.563749C50.3989 0.190416 51.2922 0.00374913 52.2122 0.00374913ZM48.5722 7.54375C48.5722 8.73042 48.9522 9.69708 49.7122 10.4437C50.4856 11.1771 51.3456 11.5437 52.2922 11.5437C53.2389 11.5437 54.0922 11.1837 54.8522 10.4637C55.6122 9.74375 55.9922 8.77708 55.9922 7.56375C55.9922 6.35042 55.6056 5.37708 54.8322 4.64375C54.0722 3.91042 53.2189 3.54375 52.2722 3.54375C51.3256 3.54375 50.4722 3.91708 49.7122 4.66375C48.9522 5.39708 48.5722 6.35708 48.5722 7.54375Z" fill="#6A784D"/>
</svg>
